<?xml version="1.0" encoding="utf-8"?>
<!-- Generator: Adobe Illustrator 16.0.0, SVG Export Plug-In . SVG Version: 6.00 Build 0)  -->
<!DOCTYPE svg PUBLIC "-//W3C//DTD SVG 1.1//EN" "http://www.w3.org/Graphics/SVG/1.1/DTD/svg11.dtd">
<svg version="1.1"
	 id="svg2" xmlns:rdf="http://www.w3.org/1999/02/22-rdf-syntax-ns#" xmlns:cc="http://creativecommons.org/ns#" xmlns:dc="http://purl.org/dc/elements/1.1/" xmlns:svg="http://www.w3.org/2000/svg"
	 xmlns="http://www.w3.org/2000/svg" xmlns:xlink="http://www.w3.org/1999/xlink" x="0px" y="0px" width="1048px" height="1048px"
	 viewBox="0 0 1048 1048" enable-background="new 0 0 1048 1048" xml:space="preserve">
<g id="layer1">
	<g id="g1421">
		<g id="g2499" transform="translate(-14,-13)">
			<path id="path2125" fill="#FFFFFF" d="M813.789,1033.421c27.579,0,27.579-27.579,27.579-27.579V537
				c27.579-1.352,137.896,0,137.896,0c12.327-0.248,23.331-3.006,28.02-14.424s2.124-24.518-6.48-33.343L559.539,47.97
				c-11.997-11.639-31.081-11.639-43.078,0L75.198,489.233c-8.605,8.825-11.169,21.925-6.481,33.343
				c4.688,11.418,15.692,14.176,28.02,14.424h137.895v470.193c0,0,0,27.579,27.579,27.579
				C427.685,1034.772,648.315,1033.421,813.789,1033.421z"/>
		</g>
	</g>
</g>
</svg>
