<?xml version="1.0" encoding="utf-8"?>
<!-- Generator: Adobe Illustrator 16.0.0, SVG Export Plug-In . SVG Version: 6.00 Build 0)  -->
<!DOCTYPE svg PUBLIC "-//W3C//DTD SVG 1.1//EN" "http://www.w3.org/Graphics/SVG/1.1/DTD/svg11.dtd">
<svg version="1.1" id="Layer_1" xmlns="http://www.w3.org/2000/svg" xmlns:xlink="http://www.w3.org/1999/xlink" x="0px" y="0px"
	 width="812.094px" height="817.203px" viewBox="0 0 812.094 817.203" enable-background="new 0 0 812.094 817.203"
	 xml:space="preserve">
<g>
	<path fill="#CCDDDD" d="M624.297,202.125l-32.234,268.656c-1.375,9.891-2.312,19.358-2.812,28.391
		c-0.516,9.047-0.766,17.484-0.766,25.328c0,25.594,10.562,38.391,31.719,38.391c29.672,0,56.625-20.983,80.858-62.953
		c23.875-41.266,35.812-88.344,35.812-141.233c0-83.906-29.344-152.656-88.016-206.219c-58.344-54.235-132.874-81.36-223.625-81.36
		c-94.845,0-174.672,32.406-239.484,97.219c-64.469,64.484-96.703,144.312-96.703,239.484c0,52.547,11.594,104.062,34.797,154.547
		c23.531,47.422,56.438,86.484,98.75,117.188c56.625,40.938,127.594,61.406,212.875,61.406c79.829,0,163.407-20.297,250.75-60.906
		l7.672-4.094l26.609,73.688l-6.141,3.078c-89.047,42.983-181.845,64.469-278.375,64.469c-106.781,0-196.172-25.75-268.142-77.267
		c-52.875-37.516-94.156-85.452-123.828-143.797C14.672,534.734,0,472.312,0,408.859c0-115.642,40.766-212.688,122.297-291.156
		C203.828,39.235,304.469,0,424.219,0c110.188,0,202.469,33.781,276.844,101.312c74.017,66.875,111.031,150.625,111.031,251.25
		c0,77.781-20.125,144.484-60.375,200.094c-40.594,56.281-88.188,84.422-142.766,84.422c-43.672,0-73.359-20.625-89.047-61.906
		c-41.969,42.984-88.704,64.469-140.204,64.469c-56.297,0-103.203-20.297-140.734-60.891
		c-36.844-40.25-55.266-91.594-55.266-154.031c0-67.203,20.641-122.469,61.922-165.797c41.281-44.344,93.125-66.516,155.562-66.516
		c57.313,0,103.532,22.172,138.673,66.516l7.172-56.797H624.297z M519.907,399.641c0-31.719-10.75-58.156-32.234-79.312
		c-22.188-21.141-49.141-31.719-80.86-31.719c-34.452,0-62.594,13.312-84.422,39.906c-22.188,26.281-33.266,59.875-33.266,100.812
		c0,35.484,8.859,64.656,26.609,87.5c17.733,22.859,40.594,34.281,68.562,34.281c35.812,0,67.375-15.172,94.672-45.531
		C506.25,475.219,519.907,439.906,519.907,399.641z"/>
</g>
</svg>
