<?xml version="1.0" encoding="utf-8"?>
<!-- Generator: Adobe Illustrator 16.0.0, SVG Export Plug-In . SVG Version: 6.00 Build 0)  -->
<!DOCTYPE svg PUBLIC "-//W3C//DTD SVG 1.1//EN" "http://www.w3.org/Graphics/SVG/1.1/DTD/svg11.dtd">
<svg version="1.1" id="Layer_1" xmlns="http://www.w3.org/2000/svg" xmlns:xlink="http://www.w3.org/1999/xlink" x="0px" y="0px"
	 width="772.001px" height="780px" viewBox="0 0 772.001 780" enable-background="new 0 0 772.001 780" xml:space="preserve">
<g>
	<path fill="#CCDDDD" d="M729.813,655.172c-41.234,41.922-89.625,73.203-145.156,93.859C529.11,769.672,467.797,780,400.735,780
		c-60.094,0-114.766-9.609-164.016-28.828c-49.25-19.219-91.36-45.953-126.329-80.203s-62.109-75.312-81.422-123.188
		S0,447.672,0,391.047c0-55.906,10.484-107.625,31.469-155.156c20.969-47.531,49.641-88.766,86-123.703
		s78.844-62.375,127.454-82.297C293.516,9.969,345.438,0,400.688,0c47.547,0,93.703,6.984,138.454,20.953
		c44.75,13.969,84.422,34.922,119.047,62.859c34.609,27.938,62.234,62.875,82.859,104.781s30.953,91.156,30.953,147.719
		c0,41.906-5.609,78.938-16.797,111.062c-11.203,32.125-26.078,59.016-44.625,80.672s-40.062,37.891-64.562,48.719
		S595.626,593,568.329,593c-31.5,0-54.594-7.641-69.282-22.938C484.344,554.766,477,537.031,477,516.859h-4.188
		c-3.5,7.656-9.078,15.828-16.766,24.516s-17.109,16.859-28.281,24.516s-23.922,14.078-38.234,19.297S359.329,593,341.875,593
		c-23.75,0-45.047-4.359-63.891-13.078c-18.859-8.719-34.75-20.562-47.656-35.562c-12.922-15-22.875-33.125-29.859-54.406
		S190,445.484,190,420.359c0-29.281,4.891-58.062,14.672-86.312s23.594-53.359,41.406-75.328s39.656-39.578,65.516-52.828
		S366.454,186,398.61,186c26.562,0,49.453,6.125,68.672,18.375S499.954,231.5,507.641,249l4.188-0.531l10.562-47.156h65.063
		l-41.922,194.672c-1.406,4.891-2.625,11-3.672,18.312c-1.047,7.328-2.266,15-3.672,23.016c-1.406,8.031-2.453,15.875-3.141,23.547
		c-0.703,7.672-1.047,13.953-1.047,18.828c0,6.281,0.516,12.391,1.578,18.312c1.047,5.938,3.5,11.516,7.344,16.734
		c3.844,5.234,9.094,9.422,15.75,12.562S574.251,532,585.454,532c17.5,0,33.422-4.875,47.766-14.656
		c14.344-9.766,26.594-23.031,36.75-39.781s18.031-36.656,23.625-59.688s8.406-47.812,8.406-74.344
		c0-45.375-7.516-85.328-22.547-119.891s-36.016-63.703-62.938-87.438s-58.734-41.531-95.438-53.406
		C484.36,70.938,443.985,65,399.938,65c-48.25,0-91.938,8.391-131.094,25.156c-39.156,16.781-72.906,39.844-101.219,69.188
		c-28.328,29.344-50.188,64.109-65.562,104.297S79,347.328,79,394.141c0,49.625,8.031,94.344,24.094,134.172
		c16.062,39.844,38.594,73.734,67.594,101.688c29,27.953,63.579,49.438,103.75,64.469S359.157,717,408.079,717
		c62.172,0,115.969-9.594,161.375-28.812s85.938-46.297,121.578-81.234L729.813,655.172z M395.375,249
		c-20.875,0-39.141,5.406-54.797,16.188c-15.656,10.797-29.062,24.547-40.188,41.25c-11.125,16.719-19.484,35.516-25.047,56.391
		C269.782,383.719,267,404.25,267,424.438c0,9.75,1.219,20.891,3.656,33.422s6.781,24.375,13.047,35.5
		c6.25,11.141,14.781,20.359,25.562,27.672S333.797,532,350.5,532c23.656,0,43.828-5.906,60.531-17.75
		c16.688-11.828,30.266-26.625,40.703-44.375s18.078-36.734,22.953-56.922S482,373.969,482,356.562
		c0-13.219-1.391-26.281-4.172-39.156s-7.484-24.375-14.094-34.469s-15.484-18.266-26.609-24.531
		C425.985,252.141,412.063,249,395.375,249z"/>
</g>
</svg>
