<?xml version="1.0" encoding="utf-8"?>
<!-- Generator: Adobe Illustrator 16.0.0, SVG Export Plug-In . SVG Version: 6.00 Build 0)  -->
<!DOCTYPE svg PUBLIC "-//W3C//DTD SVG 1.1//EN" "http://www.w3.org/Graphics/SVG/1.1/DTD/svg11.dtd">
<svg version="1.1"
	 id="Layer_1" inkscape:version="0.91 r13725" xmlns:cc="http://creativecommons.org/ns#" xmlns:svg="http://www.w3.org/2000/svg" xmlns:dc="http://purl.org/dc/elements/1.1/" xmlns:rdf="http://www.w3.org/1999/02/22-rdf-syntax-ns#" xmlns:ns1="http://sozi.baierouge.fr" xmlns:sodipodi="http://sodipodi.sourceforge.net/DTD/sodipodi-0.dtd" xmlns:inkscape="http://www.inkscape.org/namespaces/inkscape"
	 xmlns="http://www.w3.org/2000/svg" xmlns:xlink="http://www.w3.org/1999/xlink" x="0px" y="0px" width="1003.195px"
	 height="1003.211px" viewBox="22.641 22.645 1003.195 1003.211" enable-background="new 22.641 22.645 1003.195 1003.211"
	 xml:space="preserve">
<g transform="translate(-607.63544,-694.58531)">
	<path fill="#00CC89" stroke="#00CC89" stroke-width="60" stroke-linejoin="round" stroke-miterlimit="10" d="M1009.815,763.299
		c-23.599,6.324-46.444,15.672-68.148,25.196c11.949,58.991,26.974,112.304-24.226,151.59
		c-51.313,39.371-97.927,9.887-151.927-17.002c-30.71,38.09-56.567,81.071-74.242,126.696
		c50.474,33.403,100.454,58.403,91.983,122.729c-8.46,64.258-63.126,77.924-120.458,97.115c2.592,23.846,7.148,47.386,13.548,71.27
		c6.482,24.194,14.41,47.592,24.249,69.79c59.245-12.053,112.724-30.13,152.185,21.293c39.501,51.479,9.412,100.696-17.602,154.864
		c37.9,30.427,81.968,53.75,127.296,71.304c33.227-50.083,59.52-97.814,123.417-89.395c64.258,8.462,77.582,61.835,96.776,119.169
		c23.559-2.604,47.671-7.225,71.27-13.549c23.602-6.323,45.494-14.033,67.201-23.555c-12.052-59.247-27.199-112.131,24.223-151.589
		c51.134-39.237,97.771-11.055,151.583,15.707c30.475-37.865,56.977-80.1,74.589-125.397
		c-50.476-33.406-101.146-60.983-92.68-125.315c8.463-64.258,65.114-75.692,122.445-94.88c-2.58-24.147-7.413-48.374-13.896-72.564
		c-6.399-23.884-14.231-46.547-23.901-68.495c-59.243,12.052-114.718,27.895-154.173-23.528
		c-39.497-51.479-8.715-98.115,18.299-152.28c-38.115-30.672-82.001-54.966-127.643-72.602
		c-33.32,50.291-58.957,99.13-123.074,90.689c-63.982-8.425-77.626-62.106-96.772-119.17
		C1056.578,753.996,1033.415,756.976,1009.815,763.299z M1091.998,1070.007c82.304-22.053,166.646,26.644,188.699,108.948
		c22.054,82.304-26.643,166.644-108.945,188.697c-82.305,22.054-167.94-26.293-189.993-108.597
		C959.705,1176.751,1009.694,1092.061,1091.998,1070.007z"/>
</g>
</svg>
