<?xml version="1.0" encoding="utf-8"?>
<!-- Generator: Adobe Illustrator 16.0.0, SVG Export Plug-In . SVG Version: 6.00 Build 0)  -->
<!DOCTYPE svg PUBLIC "-//W3C//DTD SVG 1.1//EN" "http://www.w3.org/Graphics/SVG/1.1/DTD/svg11.dtd">
<svg version="1.1" id="home" xmlns="http://www.w3.org/2000/svg" xmlns:xlink="http://www.w3.org/1999/xlink" x="0px" y="0px"
	 width="212px" height="206.25px" viewBox="0 0 212 206.25" enable-background="new 0 0 212 206.25" xml:space="preserve">
<g id="XMLID_1_">
	<g>
		<path fill="#00CC89" d="M199.28,90.525c2.83,2.43,3.17,6.76,0.779,9.64c-0.899,1.06-5.56,0.48-9.29-1.14
			c-1.35-0.6-2.93-0.46-4.149,0.35c-1.23,0.8-1.98,2.18-1.98,3.65v88.75c0,1.43-1.1,2.6-2.449,2.6h-49.21v-72.25
			c0-2.41-1.961-4.37-4.381-4.37H83.39c-2.42,0-4.38,1.96-4.38,4.37v72.25H29.8c-1.35,0-2.45-1.17-2.45-2.6v-88.75
			c0-1.48-0.74-2.86-1.98-3.66c-1.24-0.8-2.8-0.92-4.16-0.34c-3.31,1.46-8.33,2.28-9.28,1.13c-2.39-2.88-2.04-7.2,0.77-9.64
			l88.96-77.06c2.43-2.1,5.95-2.1,8.39,0c0.311,0.28,0.67,0.5,1.05,0.67L199.28,90.525z"/>
		<path fill="#00CC89" d="M205.01,83.915c6.37,5.5,7.181,15.31,1.79,21.83c-3.41,4.12-9.05,4.06-13.41,3.2v82.84
			c0,6.25-5.02,11.34-11.189,11.34h-53.59c-2.41,0-4.37-1.96-4.37-4.37v-72.24H87.77v72.24c0,2.41-1.96,4.37-4.38,4.37H29.81
			c-6.18,0-11.2-5.09-11.2-11.34v-82.84c-4.34,0.88-9.99,0.93-13.4-3.2c-5.4-6.52-4.6-16.32,1.78-21.84l88.96-77.05
			c5.49-4.76,13.35-4.96,19.04-0.64c0.41,0.17,0.77,0.39,1.06,0.64L205.01,83.915z M200.06,100.165
			c2.391-2.88,2.051-7.21-0.779-9.64l-88.181-76.4c-0.38-0.17-0.739-0.39-1.05-0.67c-2.439-2.1-5.96-2.1-8.39,0L12.7,90.515
			c-2.81,2.44-3.16,6.76-0.77,9.64c0.95,1.15,5.97,0.33,9.28-1.13c1.36-0.58,2.92-0.46,4.16,0.34c1.24,0.8,1.98,2.18,1.98,3.66
			v88.75c0,1.43,1.1,2.6,2.45,2.6h49.21v-72.25c0-2.41,1.96-4.37,4.38-4.37H128.6c2.42,0,4.381,1.96,4.381,4.37v72.25h49.21
			c1.35,0,2.449-1.17,2.449-2.6v-88.75c0-1.47,0.75-2.85,1.98-3.65c1.22-0.81,2.8-0.95,4.149-0.35
			C194.5,100.645,199.16,101.225,200.06,100.165z"/>
	</g>
	<g>
	</g>
</g>
</svg>
