<?xml version="1.0" encoding="utf-8"?>
<!-- Generator: Adobe Illustrator 16.0.0, SVG Export Plug-In . SVG Version: 6.00 Build 0)  -->
<!DOCTYPE svg PUBLIC "-//W3C//DTD SVG 1.1//EN" "http://www.w3.org/Graphics/SVG/1.1/DTD/svg11.dtd">
<svg version="1.1"
	 id="Layer_1" xmlns:sodipodi="http://sodipodi.sourceforge.net/DTD/sodipodi-0.dtd" xmlns:inkscape="http://www.inkscape.org/namespaces/inkscape" xmlns:rdf="http://www.w3.org/1999/02/22-rdf-syntax-ns#" xmlns:cc="http://web.resource.org/cc/" xmlns:dc="http://purl.org/dc/elements/1.1/" xmlns:ns1="http://sozi.baierouge.fr"
	 xmlns="http://www.w3.org/2000/svg" xmlns:xlink="http://www.w3.org/1999/xlink" x="0px" y="0px" width="1048px" height="1048px"
	 viewBox="0 0 1048 1048" enable-background="new 0 0 1048 1048" xml:space="preserve">
<g id="imagebot_2">
	<title>Layer 1</title>
	<g id="imagebot_14" transform="translate(3 6) matrix(3.9598 0 0 3.9598 -720.38 -180.74)">
		<polyline id="imagebot_5" fill="#FFFFFF" points="336.82,256.546 337.289,256.546 338.382,256.546 340.412,256.546 
			343.378,256.546 347.282,256.546 352.434,256.546 358.368,256.546 364.926,256.546 371.952,256.546 378.822,256.546 
			385.38,256.546 391.313,256.546 396.466,256.546 400.369,256.546 403.336,256.546 405.366,256.546 406.459,256.546 
			406.927,256.546 407.083,256.546 408.176,256.234 409.894,256.078 410.987,255.766 411.143,255.766 411.299,255.766 
			411.611,255.453 412.392,255.141 413.173,254.673 414.109,253.736 414.89,252.799 415.046,252.331 415.202,252.174 
			415.359,251.706 415.671,250.613 415.827,249.52 415.983,248.895 415.827,248.739 415.827,248.271 415.671,247.022 
			415.359,245.773 415.046,244.68 414.734,243.899 414.422,243.587 414.422,243.431 414.266,243.118 413.641,242.181 412.86,240.62 
			411.455,238.434 409.581,235.155 407.239,231.095 404.429,226.099 401.15,220.478 397.559,214.389 393.811,207.831 
			390.22,201.429 386.629,195.34 383.35,189.719 380.54,184.722 378.197,180.663 376.324,177.383 374.919,175.198 374.138,173.636 
			373.513,172.699 373.357,172.387 373.513,172.387 373.982,172.075 375.231,171.294 377.417,170.045 380.383,168.327 
			383.818,166.298 387.097,164.424 390.064,162.706 392.25,161.457 393.499,160.677 393.967,160.364 394.124,160.364 
			394.28,160.677 394.904,161.613 395.685,163.175 397.09,165.517 398.964,168.796 401.306,172.856 404.273,177.852 
			407.552,183.629 411.143,189.875 414.89,196.433 418.638,202.834 422.229,209.08 425.508,214.857 428.474,219.854 
			430.816,223.913 432.69,227.192 434.095,229.534 434.876,231.095 435.501,232.032 435.657,232.345 435.657,232.501 
			436.125,233.594 436.906,235.936 438.155,239.059 439.404,242.181 440.185,244.524 440.653,245.617 440.653,245.773 
			440.653,245.929 440.809,246.397 440.809,247.646 440.965,249.208 441.122,251.238 441.122,253.424 440.809,255.922 
			440.341,258.888 439.56,261.699 439.092,263.416 438.78,264.509 438.623,264.822 438.311,265.29 437.843,266.071 436.906,267.788 
			435.344,269.974 433.627,272.004 432.378,273.409 431.753,274.19 431.441,274.502 431.129,274.815 430.192,275.283 428.63,276.22 
			426.132,277.625 423.322,278.718 420.824,279.499 418.638,279.967 416.608,280.279 414.89,280.435 413.641,280.592 
			413.173,280.592 413.017,280.592 412.548,280.592 411.767,280.592 410.05,280.592 407.552,280.592 404.117,280.592 
			399.745,280.592 394.436,280.592 388.503,280.592 381.789,280.592 374.919,280.592 368.205,280.592 361.49,280.592 
			355.557,280.592 350.249,280.592 345.876,280.592 342.442,280.592 339.943,280.592 338.226,280.592 337.445,280.592 
			336.977,280.592 336.977,280.748 336.977,281.216 336.977,282.622 336.977,284.964 336.977,288.242 336.977,291.834 
			336.977,295.425 336.977,298.704 336.977,301.046 336.977,302.451 336.977,302.92 336.977,303.076 336.82,302.92 336.352,302.139 
			335.259,300.422 333.542,297.455 331.356,294.02 329.17,290.585 327.452,287.618 326.359,285.901 325.891,285.12 325.735,284.964 
			325.578,284.808 325.11,284.027 324.017,282.309 322.299,279.342 320.113,275.908 318.084,272.472 316.366,269.506 
			315.273,267.788 314.805,267.008 314.649,266.851 314.805,266.695 315.273,265.915 316.366,264.041 318.084,261.231 
			320.27,257.639 322.299,254.204 324.017,251.394 325.11,249.52 325.578,248.739 325.735,248.583 325.891,248.427 326.359,247.646 
			327.452,245.929 329.17,242.962 331.356,239.527 333.385,236.092 335.103,233.125 336.196,231.408 336.664,230.627 
			336.82,230.471 336.82,230.627 336.82,231.252 336.82,232.813 336.82,235.624 336.82,239.215 336.82,243.587 336.82,247.802 
			336.82,251.394 336.82,254.204 336.82,255.766 336.82,256.39 336.82,256.546 		"/>
		<polyline id="imagebot_4" fill="#FFFFFF" points="248.446,182.849 248.133,183.317 247.665,184.254 246.728,185.971 
			245.167,188.469 243.137,191.905 240.639,196.276 237.672,201.429 234.393,207.206 230.958,213.296 227.523,219.229 
			224.244,225.006 221.277,230.159 218.779,234.531 216.749,237.966 215.188,240.464 214.251,242.181 213.783,243.118 
			213.47,243.587 213.47,243.743 213.002,244.836 212.533,246.241 212.065,247.334 212.065,247.49 212.065,247.646 212.065,248.115 
			212.065,248.895 212.065,249.832 212.377,251.081 212.846,252.174 213.002,252.643 213.158,252.799 213.47,253.111 
			214.251,254.048 215.188,254.829 215.5,255.141 215.812,255.297 216.281,255.453 217.374,255.922 218.779,256.234 219.716,256.39 
			220.653,256.546 221.121,256.546 221.277,256.546 221.746,256.546 222.683,256.546 224.4,256.546 227.054,256.546 
			230.802,256.546 235.642,256.546 241.263,256.546 247.821,256.546 254.847,256.546 262.342,256.546 269.681,256.546 
			276.707,256.546 283.265,256.546 288.886,256.546 293.726,256.546 297.473,256.546 300.128,256.546 301.845,256.546 
			302.782,256.546 303.251,256.546 303.251,256.702 303.251,257.327 303.251,258.732 303.251,261.231 303.251,264.665 
			303.251,268.569 303.251,272.472 303.251,275.908 303.251,278.406 303.251,279.811 303.251,280.435 303.251,280.592 
			302.782,280.592 301.845,280.592 299.972,280.592 297.317,280.592 293.57,280.592 288.73,280.592 282.952,280.592 
			276.394,280.592 269.212,280.592 261.561,280.592 254.067,280.592 246.884,280.592 240.326,280.592 234.549,280.592 
			229.709,280.592 225.961,280.592 223.307,280.592 221.433,280.592 220.497,280.592 220.028,280.592 219.872,280.592 
			218.779,280.435 216.281,279.967 213.002,279.342 209.723,278.718 207.225,278.25 206.132,278.094 205.976,278.094 
			205.819,278.094 205.351,277.781 204.258,277.469 202.853,276.688 201.135,275.908 199.262,274.815 197.232,273.253 
			194.89,271.38 192.86,269.35 191.455,267.944 190.83,267.164 190.518,266.851 190.206,266.383 189.737,265.602 188.956,263.885 
			187.707,261.387 186.77,258.888 186.146,257.015 185.834,256.078 185.834,255.609 185.677,255.141 185.677,254.204 
			185.521,252.331 185.677,249.52 186.146,246.553 186.614,244.055 187.395,241.869 188.176,240.152 188.8,238.59 189.425,237.497 
			189.737,237.029 189.737,236.873 189.893,236.56 190.362,235.78 191.142,234.374 192.392,232.188 194.109,229.222 
			196.295,225.318 198.949,220.79 202.072,215.638 205.351,209.861 208.786,203.927 212.065,197.994 215.344,192.217 
			218.467,187.064 221.121,182.536 223.307,178.633 225.025,175.666 226.274,173.48 227.054,172.075 227.523,171.294 
			227.679,170.982 227.523,170.982 227.054,170.67 225.805,169.889 223.776,168.796 221.121,167.235 217.842,165.361 
			214.719,163.487 212.065,161.926 210.035,160.833 208.786,160.052 208.318,159.74 208.162,159.74 208.318,159.74 209.255,159.74 
			211.284,159.584 214.719,159.584 218.779,159.428 222.839,159.272 226.274,159.272 228.303,159.115 229.24,159.115 
			229.397,159.115 229.553,159.115 230.49,159.115 232.675,158.959 235.954,158.959 240.17,158.803 244.23,158.647 247.509,158.647 
			249.695,158.491 250.631,158.491 250.788,158.491 250.788,158.647 251.256,159.428 252.349,161.301 253.91,164.268 
			255.94,167.859 257.814,171.45 259.375,174.417 260.468,176.291 260.937,177.071 260.937,177.227 260.937,177.383 
			261.405,178.164 262.498,180.038 264.059,183.005 266.089,186.596 268.119,190.187 269.681,193.154 270.774,195.027 
			271.242,195.808 271.242,195.964 271.086,195.964 270.617,195.496 269.212,194.715 266.714,193.466 263.591,191.592 
			259.844,189.406 256.096,187.22 252.974,185.347 250.475,184.098 249.07,183.317 248.602,182.849 248.446,182.849 		"/>
		<polyline id="imagebot_3" fill="#FFFFFF" points="356.494,143.189 356.182,142.721 355.713,141.784 354.776,140.222 
			353.215,137.568 351.185,134.133 348.687,129.761 345.72,124.608 342.442,118.831 339.006,112.898 335.571,106.965 
			332.292,101.188 329.326,96.035 326.828,91.663 324.798,88.228 323.236,85.574 322.299,84.012 321.831,83.075 321.519,82.607 
			321.363,82.451 320.582,81.67 319.645,80.265 318.865,79.484 318.708,79.328 318.552,79.328 318.24,79.016 317.459,78.547 
			316.678,78.079 315.429,77.767 314.336,77.61 313.868,77.61 313.556,77.61 313.087,77.61 311.994,77.923 310.901,78.235 
			310.433,78.547 310.277,78.547 309.808,78.86 308.872,79.64 307.935,80.577 307.154,81.514 306.685,82.139 306.373,82.607 
			306.373,82.763 306.217,83.075 305.592,84.012 304.812,85.574 303.407,87.76 301.533,91.038 299.191,95.098 296.38,100.095 
			293.101,105.716 289.51,111.805 285.763,118.207 282.172,124.608 278.581,130.698 275.301,136.319 272.491,141.315 
			270.149,145.375 268.275,148.654 266.87,150.84 266.089,152.401 265.465,153.338 265.309,153.65 265.152,153.65 264.684,153.338 
			263.435,152.557 261.249,151.308 258.282,149.591 254.847,147.717 251.568,145.843 248.602,144.126 246.416,142.877 
			245.167,142.096 244.698,141.784 244.542,141.784 244.698,141.472 245.323,140.535 246.103,138.973 247.509,136.631 
			249.382,133.352 251.881,129.137 254.691,124.14 257.97,118.519 261.561,112.273 265.465,105.716 269.212,99.158 272.803,92.912 
			276.082,87.291 278.893,82.295 281.391,78.079 283.265,74.8 284.67,72.458 285.451,70.897 286.075,69.96 286.231,69.647 
			286.387,69.491 287.012,68.71 288.73,66.837 290.915,64.182 292.945,61.528 294.663,59.654 295.287,58.874 295.444,58.718 
			295.912,58.249 296.849,57.625 298.254,56.688 299.815,55.595 301.689,54.658 304.031,53.565 306.842,52.472 309.496,51.691 
			311.37,51.223 312.463,51.067 312.931,50.911 313.399,50.911 314.336,50.911 316.21,51.067 318.865,51.223 321.519,51.691 
			323.392,52.004 324.329,52.316 324.798,52.472 325.11,52.628 326.047,52.94 327.765,53.877 330.106,55.439 332.449,57.312 
			334.322,59.03 335.884,60.747 337.133,62.309 338.069,63.714 338.85,64.651 339.163,65.119 339.163,65.275 339.319,65.588 
			339.787,66.368 340.568,67.774 341.817,69.96 343.534,72.926 345.876,76.83 348.531,81.358 351.498,86.51 354.776,92.288 
			358.212,98.221 361.647,104.154 364.926,109.931 367.892,115.084 370.547,119.612 372.889,123.515 374.606,126.482 
			375.855,128.668 376.636,130.073 377.104,130.854 377.26,131.166 377.417,131.166 377.885,130.854 379.134,130.073 
			381.164,128.98 383.818,127.263 387.097,125.389 390.22,123.672 392.874,121.954 394.904,120.861 396.153,120.08 396.622,119.768 
			396.778,119.768 396.778,119.924 396.31,120.705 395.217,122.579 393.655,125.545 391.625,129.137 389.752,132.728 
			388.19,135.694 387.097,137.568 386.629,138.349 386.629,138.505 386.629,138.661 386.16,139.442 385.067,141.315 
			383.506,144.282 381.633,148.029 379.759,151.621 378.197,154.587 377.104,156.461 376.636,157.242 376.636,157.398 
			376.48,157.398 375.543,157.398 373.357,157.398 370.078,157.242 365.862,157.085 361.803,157.085 358.524,156.929 
			356.338,156.929 355.401,156.929 355.245,156.929 355.089,156.929 354.152,156.929 351.966,156.773 348.687,156.773 
			344.471,156.617 340.412,156.461 337.133,156.461 334.947,156.305 334.01,156.305 333.854,156.305 334.01,156.305 
			334.478,155.836 335.884,155.056 338.226,153.806 341.505,151.933 345.252,149.747 348.843,147.561 352.122,145.687 
			354.464,144.438 355.869,143.657 356.338,143.189 356.494,143.189 		"/>
	</g>
</g>
</svg>
